# xmcd
#
# Track frame offsets:
#	150
#	14125
#	28030
#	41257
#	56486
#	70926
#	85716
#	100516
#	112807
#	127678
#	143205
#	158816
#	170844
#	186508
#	200809
#	218368
#	237917
#
# Disc length: 3335 seconds
#
# Revision: 1
# Processed by: cddbd v1.5.2PL0 Copyright (c) Steve Scherf et al.
# Submitted via: audiograbber 1.83.01
#
DISCID=e30d0511
DTITLE=Paradão Sertanejo - Ao Vivo
DYEAR=1900
DGENRE=
TTITLE0=Michel Teló - Fugidinha
TTITLE1=Jorge e Mateus - Amo Noite E dia
TTITLE2=João Bosco e Vinicius - Dois Anos
TTITLE3=Fernando e Sorocaba - Até O Final
TTITLE4=Zé Henrique e Gabriel - Solidão Dando Risada
TTITLE5=João Neto e Frederico - Delegada
TTITLE6=Guilherme e Santiago - Que Vonmtade Que Dá
TTITLE7=Cesar Minotti e Fabiano - É Ruim Que Dói
TTITLE8=Maria Cecilia e Rodolfo - Como Eu Quero
TTITLE9=Lucas e Luan - Pense Em Mim
TTITLE10=Henrique e Diego - Vacilei
TTITLE11=Cesar e Alessandro - Casa Liberada
TTITLE12=Ricardo e Eduardo - Faz Um Coração Com As Mãos
TTITLE13=João Neto e Frederico - Não Vou Mais Chorar
TTITLE14=Luan Santana - Sinais
TTITLE15=Daniel - Te Cuida Coração
TTITLE16=Janainna - Que Papo É Esse
EXTD=
EXTT0=
EXTT1=
EXTT2=
EXTT3=
EXTT4=
EXTT5=
EXTT6=
EXTT7=
EXTT8=
EXTT9=
EXTT10=
EXTT11=
EXTT12=
EXTT13=
EXTT14=
EXTT15=
EXTT16=
PLAYORDER=
